<?xml version="1.0" encoding="UTF-8" standalone="no"?>
<?xml-stylesheet href="/css" type="text/css"?>

<svg
   xmlns:svg="http://www.w3.org/2000/svg"
   xmlns="http://www.w3.org/2000/svg"
   xmlns:xlink="http://www.w3.org/1999/xlink"
   viewBox="0 0 52 52"
   class="social_media_svg"
   pointer-events="bounding-box"
   id="svgroot">
  <path
  	fill="#fff"
     d="M 26,0 C 11.640618,0 0,11.640613 0,26.000004 0,40.359404 11.640618,52 26,52 40.359383,52 52,40.359404 52,26.000004 52,11.640613 40.359383,0 26,0 z m -3.34375,10.156248 4.53125,0 0,8.031253 7.5,0 0,4.968745 -7.5,0 0,8.125007 c 0,1.836437 0.08566,3.009207 0.28125,3.531247 0.194074,0.521048 0.565186,0.938575 1.09375,1.249998 0.701074,0.420233 1.472329,0.624999 2.375,0.624999 1.603745,0 3.225306,-0.519415 4.8125,-1.562494 l 0,1.968744 0,3.03125 c -0.677251,0.318955 -1.324558,0.588584 -1.9375,0.812508 -0.612942,0.223974 -1.201628,0.40287 -1.75,0.531245 -0.27456,0.06419 -0.558091,0.108152 -0.84375,0.156252 -0.571269,0.09628 -1.165473,0.155407 -1.78125,0.187501 -0.307848,0.01609 -0.618553,0.03128 -0.9375,0.03128 -1.448281,0 -2.731454,-0.165669 -3.84375,-0.531253 -0.238209,-0.07841 -0.464867,-0.188045 -0.6875,-0.281247 -0.111394,-0.04607 -0.204836,-0.07532 -0.3125,-0.125003 -0.127237,-0.05939 -0.253036,-0.12315 -0.375,-0.1875 C 23.124405,40.636848 22.960741,40.527607 22.8125,40.437534 22.624049,40.32302 22.455832,40.221441 22.28125,40.093781 22.124698,39.9793 21.957921,39.875048 21.8125,39.750037 21.026171,39.072022 20.4904,38.357038 20.1875,37.593784 19.884104,36.831529 19.71875,35.69732 19.71875,34.25003 l 0,-11.093751 -3.5,0 0,-4.499998 c 1.244685,-0.404706 2.300876,-0.963016 3.1875,-1.718746 0.888128,-0.754748 1.619667,-1.690869 2.15625,-2.750003 0.53759,-1.057623 0.892152,-2.396924 1.09375,-4.031251 z"
     class="social_media_icon tumblr"/>
</svg>
